<svg width="37" height="36" viewBox="0 0 37 36" fill="none" xmlns="http://www.w3.org/2000/svg">
<g id="40x icon">
<path id="Vector" d="M24.4888 11.7778H24.5066M15.5999 10H15.6177M10.2666 17.1111H10.2844M18.2666 34C9.43005 34 2.2666 26.8366 2.2666 18C2.2666 9.16345 9.43005 2 18.2666 2C27.1032 2 34.2666 9.16345 34.2666 18C34.2666 20.9456 31.8789 23.3333 28.9333 23.3333H27.8666C27.206 23.3333 26.8757 23.3333 26.5992 23.3771C25.0778 23.6181 23.8847 24.8112 23.6437 26.3326C23.5999 26.6091 23.5999 26.9394 23.5999 27.6V28.6667C23.5999 31.6123 21.2122 34 18.2666 34ZM25.3777 11.7778C25.3777 12.2687 24.9797 12.6667 24.4888 12.6667C23.998 12.6667 23.5999 12.2687 23.5999 11.7778C23.5999 11.2869 23.998 10.8889 24.4888 10.8889C24.9797 10.8889 25.3777 11.2869 25.3777 11.7778ZM16.4888 10C16.4888 10.4909 16.0908 10.8889 15.5999 10.8889C15.1091 10.8889 14.711 10.4909 14.711 10C14.711 9.50908 15.1091 9.11111 15.5999 9.11111C16.0908 9.11111 16.4888 9.50908 16.4888 10ZM11.1555 17.1111C11.1555 17.602 10.7575 18 10.2666 18C9.77569 18 9.37771 17.602 9.37771 17.1111C9.37771 16.6203 9.77569 16.2222 10.2666 16.2222C10.7575 16.2222 11.1555 16.6203 11.1555 17.1111Z" stroke="#583A18" stroke-width="4" stroke-linecap="round" stroke-linejoin="round"/>
</g>
</svg>
