<svg width="36" height="36" viewBox="0 0 36 36" fill="none" xmlns="http://www.w3.org/2000/svg">
<g id="32x icon">
<path id="Vector" d="M34 18C34 26.8366 26.8366 34 18 34C9.16345 34 2 26.8366 2 18C2 9.16345 9.16345 2 18 2C26.8366 2 34 9.16345 34 18Z" stroke="#2C1D0C" stroke-width="4" stroke-linecap="round" stroke-linejoin="round"/>
<path id="Vector_2" d="M12.6666 15.5111C12.6666 14.5154 12.6666 14.0177 12.8604 13.6374C13.0308 13.3029 13.3028 13.0309 13.6373 12.8604C14.0176 12.6667 14.5153 12.6667 15.5111 12.6667H20.4888C21.4846 12.6667 21.9824 12.6667 22.3626 12.8604C22.6972 13.0309 22.969 13.3029 23.1395 13.6374C23.3333 14.0177 23.3333 14.5154 23.3333 15.5111V20.4889C23.3333 21.4846 23.3333 21.9824 23.1395 22.3627C22.969 22.6973 22.6972 22.9691 22.3626 23.1396C21.9824 23.3334 21.4846 23.3334 20.4888 23.3334H15.5111C14.5153 23.3334 14.0176 23.3334 13.6373 23.1396C13.3028 22.9691 13.0308 22.6973 12.8604 22.3627C12.6666 21.9824 12.6666 21.4846 12.6666 20.4889V15.5111Z" stroke="#2C1D0C" stroke-width="4" stroke-linecap="round" stroke-linejoin="round"/>
</g>
</svg>
