<svg width="36" height="36" viewBox="0 0 36 36" fill="none" xmlns="http://www.w3.org/2000/svg">
<g id="32x icon light">
<path id="Vector" d="M7.33333 18H4.84444C3.8488 18 3.35097 18 2.97068 18.1938C2.63618 18.3643 2.36421 18.6361 2.19376 18.9707C2 19.3509 2 19.8487 2 20.8444V25.8222C2 26.818 2 27.3157 2.19376 27.696C2.36421 28.0306 2.63618 28.3024 2.97068 28.4729C3.35097 28.6667 3.8488 28.6667 4.84444 28.6667H7.33333M28.6667 18H31.1556C32.1513 18 32.6491 18 33.0293 18.1938C33.3639 18.3643 33.6357 18.6361 33.8062 18.9707C34 19.3509 34 19.8487 34 20.8444V25.8222C34 26.818 34 27.3157 33.8062 27.696C33.6357 28.0306 33.3639 28.3024 33.0293 28.4729C32.6491 28.6667 32.1513 28.6667 31.1556 28.6667H28.6667M23.3333 7.33333C23.3333 4.38782 20.9456 2 18 2C15.0544 2 12.6667 4.38782 12.6667 7.33333M14.4444 18H21.5556M15.8667 34H20.1333C23.1204 34 24.6137 34 25.7547 33.4187C26.7582 32.9074 27.574 32.0916 28.0853 31.088C28.6667 29.947 28.6667 28.4537 28.6667 25.4667V15.8667C28.6667 12.8797 28.6667 11.3862 28.0853 10.2454C27.574 9.24185 26.7582 8.42596 25.7547 7.91463C24.6137 7.33333 23.1204 7.33333 20.1333 7.33333H15.8667C12.8797 7.33333 11.3862 7.33333 10.2454 7.91463C9.24185 8.42596 8.42596 9.24185 7.91463 10.2454C7.33333 11.3862 7.33333 12.8797 7.33333 15.8667V25.4667C7.33333 28.4537 7.33333 29.947 7.91463 31.088C8.42596 32.0916 9.24185 32.9074 10.2454 33.4187C11.3862 34 12.8797 34 15.8667 34Z" stroke="#583A18" stroke-width="4" stroke-linecap="round" stroke-linejoin="round"/>
</g>
</svg>
