<svg width="28" height="28" viewBox="0 0 28 28" fill="none" xmlns="http://www.w3.org/2000/svg">
<g id="icons">
<path id="Vector" d="M18.8666 9.33333H18.88M12.2 8H12.2133M8.19995 13.3333H8.21328M14.2 26C7.57254 26 2.19995 20.6275 2.19995 14C2.19995 7.37259 7.57254 2 14.2 2C20.8274 2 26.2 7.37259 26.2 14C26.2 16.2092 24.4092 18 22.2 18H21.4C20.9045 18 20.6568 18 20.4494 18.0328C19.3084 18.2136 18.4136 19.1084 18.2328 20.2495C18.2 20.4568 18.2 20.7045 18.2 21.2V22C18.2 24.2092 16.4092 26 14.2 26ZM19.5333 9.33333C19.5333 9.70152 19.2348 10 18.8666 10C18.4985 10 18.2 9.70152 18.2 9.33333C18.2 8.96515 18.4985 8.66667 18.8666 8.66667C19.2348 8.66667 19.5333 8.96515 19.5333 9.33333ZM12.8666 8C12.8666 8.36819 12.5681 8.66667 12.2 8.66667C11.8318 8.66667 11.5333 8.36819 11.5333 8C11.5333 7.63181 11.8318 7.33333 12.2 7.33333C12.5681 7.33333 12.8666 7.63181 12.8666 8ZM8.86662 13.3333C8.86662 13.7015 8.56814 14 8.19995 14C7.83176 14 7.53328 13.7015 7.53328 13.3333C7.53328 12.9652 7.83176 12.6667 8.19995 12.6667C8.56814 12.6667 8.86662 12.9652 8.86662 13.3333Z" stroke="#583A18" stroke-width="3" stroke-linecap="round" stroke-linejoin="round"/>
</g>
</svg>
