<svg width="36" height="36" viewBox="0 0 36 36" fill="none" xmlns="http://www.w3.org/2000/svg">
<g id="40x icon">
<path id="Vector" d="M14 18H22M18 14V22M33.9184 24H27.2C26.0798 24 25.5198 24 25.092 24.218C24.7156 24.4098 24.4098 24.7156 24.218 25.092C24 25.5198 24 26.0798 24 27.2V33.9184M34 22.2062V8.4C34 6.15978 34 5.03968 33.564 4.18404C33.1806 3.43138 32.5686 2.81946 31.816 2.43598C30.9604 2 29.8402 2 27.6 2H8.4C6.1598 2 5.03968 2 4.18404 2.43598C3.43138 2.81946 2.81946 3.43138 2.43598 4.18404C2 5.03968 2 6.1598 2 8.4V27.6C2 29.8402 2 30.9604 2.43598 31.816C2.81946 32.5686 3.43138 33.1806 4.18404 33.564C5.03968 34 6.1598 34 8.4 34H22.2062C23.1846 34 23.6738 34 24.134 33.8894C24.5422 33.7914 24.9324 33.6298 25.2902 33.4106C25.694 33.1632 26.0398 32.8172 26.7316 32.1254L32.1254 26.7316C32.8172 26.0398 33.1632 25.694 33.4106 25.2902C33.6298 24.9324 33.7914 24.5422 33.8894 24.134C34 23.6738 34 23.1846 34 22.2062Z" stroke="#583A18" stroke-width="4" stroke-linecap="round" stroke-linejoin="round"/>
</g>
</svg>
