<svg width="18" height="18" viewBox="0 0 18 18" fill="none" xmlns="http://www.w3.org/2000/svg">
<g id="icons">
<path id="Vector" d="M7 9H11M9 7V11M16.9592 12H13.6C13.0399 12 12.7599 12 12.546 12.109C12.3578 12.2049 12.2049 12.3578 12.109 12.546C12 12.7599 12 13.0399 12 13.6V16.9592M17 11.1031V4.2C17 3.07989 17 2.51984 16.782 2.09202C16.5903 1.71569 16.2843 1.40973 15.908 1.21799C15.4802 1 14.9201 1 13.8 1H4.2C3.0799 1 2.51984 1 2.09202 1.21799C1.71569 1.40973 1.40973 1.71569 1.21799 2.09202C1 2.51984 1 3.0799 1 4.2V13.8C1 14.9201 1 15.4802 1.21799 15.908C1.40973 16.2843 1.71569 16.5903 2.09202 16.782C2.51984 17 3.0799 17 4.2 17H11.1031C11.5923 17 11.8369 17 12.067 16.9447C12.2711 16.8957 12.4662 16.8149 12.6451 16.7053C12.847 16.5816 13.0199 16.4086 13.3658 16.0627L16.0627 13.3658C16.4086 13.0199 16.5816 12.847 16.7053 12.6451C16.8149 12.4662 16.8957 12.2711 16.9447 12.067C17 11.8369 17 11.5923 17 11.1031Z" stroke="#2C1D0C" stroke-width="2" stroke-linecap="round" stroke-linejoin="round"/>
</g>
</svg>
