<svg width="36" height="36" viewBox="0 0 36 36" fill="none" xmlns="http://www.w3.org/2000/svg">
<path d="M34 18C34 26.8366 26.8366 34 18 34C9.16345 34 2 26.8366 2 18C2 9.16345 9.16345 2 18 2C26.8366 2 34 9.16345 34 18Z" stroke="#2C1D0C" stroke-width="4" stroke-linecap="round" stroke-linejoin="round"/>
<path d="M23.3359 16.8167C23.9295 17.2123 24.2262 17.4101 24.3297 17.6595C24.42 17.8775 24.42 18.1225 24.3297 18.3404C24.2262 18.5899 23.9295 18.7877 23.3359 19.1833L16.6555 23.637C15.9371 24.1159 15.578 24.3554 15.2802 24.3376C15.0209 24.3219 14.781 24.1938 14.6242 23.9865C14.4443 23.7486 14.4443 23.317 14.4443 22.4537V13.5463C14.4443 12.6831 14.4443 12.2514 14.6242 12.0135C14.781 11.8062 15.0209 11.678 15.2802 11.6625C15.578 11.6447 15.9371 11.8841 16.6555 12.363L23.3359 16.8167Z" stroke="#2C1D0C" stroke-width="4" stroke-linecap="round" stroke-linejoin="round"/>
</svg>
